%TF.GenerationSoftware,KiCad,Pcbnew,9.0.1*%
%TF.CreationDate,2025-04-18T19:28:50+01:00*%
%TF.ProjectId,ClockSel,436c6f63-6b53-4656-9c2e-6b696361645f,rev?*%
%TF.SameCoordinates,Original*%
%TF.FileFunction,Legend,Top*%
%TF.FilePolarity,Positive*%
%FSLAX46Y46*%
G04 Gerber Fmt 4.6, Leading zero omitted, Abs format (unit mm)*
G04 Created by KiCad (PCBNEW 9.0.1) date 2025-04-18 19:28:50*
%MOMM*%
%LPD*%
G01*
G04 APERTURE LIST*
%ADD10C,0.150000*%
%ADD11C,0.120000*%
G04 APERTURE END LIST*
D10*
X144471981Y-81416221D02*
X144471981Y-81263840D01*
X144471981Y-81263840D02*
X144519600Y-81187650D01*
X144519600Y-81187650D02*
X144614838Y-81111459D01*
X144614838Y-81111459D02*
X144805314Y-81073364D01*
X144805314Y-81073364D02*
X145138647Y-81073364D01*
X145138647Y-81073364D02*
X145329123Y-81111459D01*
X145329123Y-81111459D02*
X145424362Y-81187650D01*
X145424362Y-81187650D02*
X145471981Y-81263840D01*
X145471981Y-81263840D02*
X145471981Y-81416221D01*
X145471981Y-81416221D02*
X145424362Y-81492412D01*
X145424362Y-81492412D02*
X145329123Y-81568602D01*
X145329123Y-81568602D02*
X145138647Y-81606698D01*
X145138647Y-81606698D02*
X144805314Y-81606698D01*
X144805314Y-81606698D02*
X144614838Y-81568602D01*
X144614838Y-81568602D02*
X144519600Y-81492412D01*
X144519600Y-81492412D02*
X144471981Y-81416221D01*
X144805314Y-80387650D02*
X145471981Y-80387650D01*
X144805314Y-80730507D02*
X145329123Y-80730507D01*
X145329123Y-80730507D02*
X145424362Y-80692412D01*
X145424362Y-80692412D02*
X145471981Y-80616222D01*
X145471981Y-80616222D02*
X145471981Y-80501936D01*
X145471981Y-80501936D02*
X145424362Y-80425745D01*
X145424362Y-80425745D02*
X145376742Y-80387650D01*
X144805314Y-80120983D02*
X144805314Y-79816221D01*
X144471981Y-80006697D02*
X145329123Y-80006697D01*
X145329123Y-80006697D02*
X145424362Y-79968602D01*
X145424362Y-79968602D02*
X145471981Y-79892412D01*
X145471981Y-79892412D02*
X145471981Y-79816221D01*
X129519819Y-83222285D02*
X129519819Y-83603237D01*
X129519819Y-83603237D02*
X128519819Y-83603237D01*
X129519819Y-82841333D02*
X129472200Y-82917523D01*
X129472200Y-82917523D02*
X129424580Y-82955618D01*
X129424580Y-82955618D02*
X129329342Y-82993714D01*
X129329342Y-82993714D02*
X129043628Y-82993714D01*
X129043628Y-82993714D02*
X128948390Y-82955618D01*
X128948390Y-82955618D02*
X128900771Y-82917523D01*
X128900771Y-82917523D02*
X128853152Y-82841333D01*
X128853152Y-82841333D02*
X128853152Y-82727047D01*
X128853152Y-82727047D02*
X128900771Y-82650856D01*
X128900771Y-82650856D02*
X128948390Y-82612761D01*
X128948390Y-82612761D02*
X129043628Y-82574666D01*
X129043628Y-82574666D02*
X129329342Y-82574666D01*
X129329342Y-82574666D02*
X129424580Y-82612761D01*
X129424580Y-82612761D02*
X129472200Y-82650856D01*
X129472200Y-82650856D02*
X129519819Y-82727047D01*
X129519819Y-82727047D02*
X129519819Y-82841333D01*
X144471981Y-79161935D02*
X145471981Y-78895268D01*
X145471981Y-78895268D02*
X144471981Y-78628602D01*
X145424362Y-78019078D02*
X145471981Y-78095269D01*
X145471981Y-78095269D02*
X145471981Y-78247650D01*
X145471981Y-78247650D02*
X145424362Y-78323840D01*
X145424362Y-78323840D02*
X145376742Y-78361935D01*
X145376742Y-78361935D02*
X145281504Y-78400031D01*
X145281504Y-78400031D02*
X144995790Y-78400031D01*
X144995790Y-78400031D02*
X144900552Y-78361935D01*
X144900552Y-78361935D02*
X144852933Y-78323840D01*
X144852933Y-78323840D02*
X144805314Y-78247650D01*
X144805314Y-78247650D02*
X144805314Y-78095269D01*
X144805314Y-78095269D02*
X144852933Y-78019078D01*
X145424362Y-77333364D02*
X145471981Y-77409555D01*
X145471981Y-77409555D02*
X145471981Y-77561936D01*
X145471981Y-77561936D02*
X145424362Y-77638126D01*
X145424362Y-77638126D02*
X145376742Y-77676221D01*
X145376742Y-77676221D02*
X145281504Y-77714317D01*
X145281504Y-77714317D02*
X144995790Y-77714317D01*
X144995790Y-77714317D02*
X144900552Y-77676221D01*
X144900552Y-77676221D02*
X144852933Y-77638126D01*
X144852933Y-77638126D02*
X144805314Y-77561936D01*
X144805314Y-77561936D02*
X144805314Y-77409555D01*
X144805314Y-77409555D02*
X144852933Y-77333364D01*
X145424362Y-84070507D02*
X145471981Y-83956221D01*
X145471981Y-83956221D02*
X145471981Y-83765745D01*
X145471981Y-83765745D02*
X145424362Y-83689554D01*
X145424362Y-83689554D02*
X145376742Y-83651459D01*
X145376742Y-83651459D02*
X145281504Y-83613364D01*
X145281504Y-83613364D02*
X145186266Y-83613364D01*
X145186266Y-83613364D02*
X145091028Y-83651459D01*
X145091028Y-83651459D02*
X145043409Y-83689554D01*
X145043409Y-83689554D02*
X144995790Y-83765745D01*
X144995790Y-83765745D02*
X144948171Y-83918126D01*
X144948171Y-83918126D02*
X144900552Y-83994316D01*
X144900552Y-83994316D02*
X144852933Y-84032411D01*
X144852933Y-84032411D02*
X144757695Y-84070507D01*
X144757695Y-84070507D02*
X144662457Y-84070507D01*
X144662457Y-84070507D02*
X144567219Y-84032411D01*
X144567219Y-84032411D02*
X144519600Y-83994316D01*
X144519600Y-83994316D02*
X144471981Y-83918126D01*
X144471981Y-83918126D02*
X144471981Y-83727649D01*
X144471981Y-83727649D02*
X144519600Y-83613364D01*
X145424362Y-82965744D02*
X145471981Y-83041935D01*
X145471981Y-83041935D02*
X145471981Y-83194316D01*
X145471981Y-83194316D02*
X145424362Y-83270506D01*
X145424362Y-83270506D02*
X145329123Y-83308602D01*
X145329123Y-83308602D02*
X144948171Y-83308602D01*
X144948171Y-83308602D02*
X144852933Y-83270506D01*
X144852933Y-83270506D02*
X144805314Y-83194316D01*
X144805314Y-83194316D02*
X144805314Y-83041935D01*
X144805314Y-83041935D02*
X144852933Y-82965744D01*
X144852933Y-82965744D02*
X144948171Y-82927649D01*
X144948171Y-82927649D02*
X145043409Y-82927649D01*
X145043409Y-82927649D02*
X145138647Y-83308602D01*
X145471981Y-82470507D02*
X145424362Y-82546697D01*
X145424362Y-82546697D02*
X145329123Y-82584792D01*
X145329123Y-82584792D02*
X144471981Y-82584792D01*
X144519600Y-86343841D02*
X144471981Y-86420031D01*
X144471981Y-86420031D02*
X144471981Y-86534317D01*
X144471981Y-86534317D02*
X144519600Y-86648603D01*
X144519600Y-86648603D02*
X144614838Y-86724793D01*
X144614838Y-86724793D02*
X144710076Y-86762888D01*
X144710076Y-86762888D02*
X144900552Y-86800984D01*
X144900552Y-86800984D02*
X145043409Y-86800984D01*
X145043409Y-86800984D02*
X145233885Y-86762888D01*
X145233885Y-86762888D02*
X145329123Y-86724793D01*
X145329123Y-86724793D02*
X145424362Y-86648603D01*
X145424362Y-86648603D02*
X145471981Y-86534317D01*
X145471981Y-86534317D02*
X145471981Y-86458126D01*
X145471981Y-86458126D02*
X145424362Y-86343841D01*
X145424362Y-86343841D02*
X145376742Y-86305745D01*
X145376742Y-86305745D02*
X145043409Y-86305745D01*
X145043409Y-86305745D02*
X145043409Y-86458126D01*
X144805314Y-85962888D02*
X145471981Y-85962888D01*
X144900552Y-85962888D02*
X144852933Y-85924793D01*
X144852933Y-85924793D02*
X144805314Y-85848603D01*
X144805314Y-85848603D02*
X144805314Y-85734317D01*
X144805314Y-85734317D02*
X144852933Y-85658126D01*
X144852933Y-85658126D02*
X144948171Y-85620031D01*
X144948171Y-85620031D02*
X145471981Y-85620031D01*
X145471981Y-84896221D02*
X144471981Y-84896221D01*
X145424362Y-84896221D02*
X145471981Y-84972412D01*
X145471981Y-84972412D02*
X145471981Y-85124793D01*
X145471981Y-85124793D02*
X145424362Y-85200983D01*
X145424362Y-85200983D02*
X145376742Y-85239078D01*
X145376742Y-85239078D02*
X145281504Y-85277174D01*
X145281504Y-85277174D02*
X144995790Y-85277174D01*
X144995790Y-85277174D02*
X144900552Y-85239078D01*
X144900552Y-85239078D02*
X144852933Y-85200983D01*
X144852933Y-85200983D02*
X144805314Y-85124793D01*
X144805314Y-85124793D02*
X144805314Y-84972412D01*
X144805314Y-84972412D02*
X144852933Y-84896221D01*
X129518819Y-71335046D02*
X128518819Y-71335046D01*
X128995009Y-71335046D02*
X128995009Y-70877903D01*
X129518819Y-70877903D02*
X128518819Y-70877903D01*
X129518819Y-70496951D02*
X128852152Y-70496951D01*
X128518819Y-70496951D02*
X128566438Y-70535047D01*
X128566438Y-70535047D02*
X128614057Y-70496951D01*
X128614057Y-70496951D02*
X128566438Y-70458856D01*
X128566438Y-70458856D02*
X128518819Y-70496951D01*
X128518819Y-70496951D02*
X128614057Y-70496951D01*
X132405974Y-87889096D02*
X133072640Y-87889096D01*
X133072640Y-87889096D02*
X132644069Y-88889096D01*
X133882164Y-88222429D02*
X133882164Y-88889096D01*
X133644069Y-87841477D02*
X133405974Y-88555762D01*
X133405974Y-88555762D02*
X134025021Y-88555762D01*
X134310736Y-88889096D02*
X134834545Y-88222429D01*
X134310736Y-88222429D02*
X134834545Y-88889096D01*
X135405974Y-87889096D02*
X135501212Y-87889096D01*
X135501212Y-87889096D02*
X135596450Y-87936715D01*
X135596450Y-87936715D02*
X135644069Y-87984334D01*
X135644069Y-87984334D02*
X135691688Y-88079572D01*
X135691688Y-88079572D02*
X135739307Y-88270048D01*
X135739307Y-88270048D02*
X135739307Y-88508143D01*
X135739307Y-88508143D02*
X135691688Y-88698619D01*
X135691688Y-88698619D02*
X135644069Y-88793857D01*
X135644069Y-88793857D02*
X135596450Y-88841477D01*
X135596450Y-88841477D02*
X135501212Y-88889096D01*
X135501212Y-88889096D02*
X135405974Y-88889096D01*
X135405974Y-88889096D02*
X135310736Y-88841477D01*
X135310736Y-88841477D02*
X135263117Y-88793857D01*
X135263117Y-88793857D02*
X135215498Y-88698619D01*
X135215498Y-88698619D02*
X135167879Y-88508143D01*
X135167879Y-88508143D02*
X135167879Y-88270048D01*
X135167879Y-88270048D02*
X135215498Y-88079572D01*
X135215498Y-88079572D02*
X135263117Y-87984334D01*
X135263117Y-87984334D02*
X135310736Y-87936715D01*
X135310736Y-87936715D02*
X135405974Y-87889096D01*
X136358355Y-87889096D02*
X136453593Y-87889096D01*
X136453593Y-87889096D02*
X136548831Y-87936715D01*
X136548831Y-87936715D02*
X136596450Y-87984334D01*
X136596450Y-87984334D02*
X136644069Y-88079572D01*
X136644069Y-88079572D02*
X136691688Y-88270048D01*
X136691688Y-88270048D02*
X136691688Y-88508143D01*
X136691688Y-88508143D02*
X136644069Y-88698619D01*
X136644069Y-88698619D02*
X136596450Y-88793857D01*
X136596450Y-88793857D02*
X136548831Y-88841477D01*
X136548831Y-88841477D02*
X136453593Y-88889096D01*
X136453593Y-88889096D02*
X136358355Y-88889096D01*
X136358355Y-88889096D02*
X136263117Y-88841477D01*
X136263117Y-88841477D02*
X136215498Y-88793857D01*
X136215498Y-88793857D02*
X136167879Y-88698619D01*
X136167879Y-88698619D02*
X136120260Y-88508143D01*
X136120260Y-88508143D02*
X136120260Y-88270048D01*
X136120260Y-88270048D02*
X136167879Y-88079572D01*
X136167879Y-88079572D02*
X136215498Y-87984334D01*
X136215498Y-87984334D02*
X136263117Y-87936715D01*
X136263117Y-87936715D02*
X136358355Y-87889096D01*
D11*
%TO.C,C3*%
X117730000Y-81225000D02*
X117730000Y-79695000D01*
X119570000Y-81225000D02*
X119570000Y-79695000D01*
%TO.C,C4*%
X117730000Y-84795000D02*
X117730000Y-86325000D01*
X119570000Y-84795000D02*
X119570000Y-86325000D01*
%TO.C,J1*%
X141400000Y-84620000D02*
X141400000Y-76890000D01*
X144160000Y-76890000D02*
X141400000Y-76890000D01*
X144160000Y-84620000D02*
X141400000Y-84620000D01*
X144160000Y-84620000D02*
X144160000Y-76890000D01*
X144160000Y-85890000D02*
X144160000Y-87270000D01*
X144160000Y-87270000D02*
X142780000Y-87270000D01*
%TO.C,Y2*%
X123110000Y-80125000D02*
X123110000Y-86375000D01*
X128160000Y-80125000D02*
X128160000Y-86375000D01*
X123110000Y-80125000D02*
G75*
G02*
X128160000Y-80125000I2525000J0D01*
G01*
X128160000Y-86375000D02*
G75*
G02*
X123110000Y-86375000I-2525000J0D01*
G01*
%TO.C,C5*%
X135290000Y-66440000D02*
X133760000Y-66440000D01*
X135290000Y-68280000D02*
X133760000Y-68280000D01*
%TO.C,C2*%
X117730000Y-73040000D02*
X117730000Y-74570000D01*
X119570000Y-73040000D02*
X119570000Y-74570000D01*
%TO.C,R3*%
X121444000Y-80664000D02*
X121444000Y-80044000D01*
X122364000Y-81584000D02*
G75*
G02*
X120524000Y-81584000I-920000J0D01*
G01*
X120524000Y-81584000D02*
G75*
G02*
X122364000Y-81584000I920000J0D01*
G01*
%TO.C,Y1*%
X123110000Y-67625000D02*
X123110000Y-73875000D01*
X128160000Y-67625000D02*
X128160000Y-73875000D01*
X123110000Y-67625000D02*
G75*
G02*
X128160000Y-67625000I2525000J0D01*
G01*
X128160000Y-73875000D02*
G75*
G02*
X123110000Y-73875000I-2525000J0D01*
G01*
%TO.C,R2*%
X121444000Y-73360000D02*
X121444000Y-73980000D01*
X122364000Y-72440000D02*
G75*
G02*
X120524000Y-72440000I-920000J0D01*
G01*
X120524000Y-72440000D02*
G75*
G02*
X122364000Y-72440000I920000J0D01*
G01*
%TO.C,C1*%
X117730000Y-69490000D02*
X117730000Y-67960000D01*
X119570000Y-69490000D02*
X119570000Y-67960000D01*
%TO.C,SW1*%
X140520000Y-65510000D02*
X140830000Y-65510000D01*
X140520000Y-74330000D02*
X140520000Y-65510000D01*
X140520000Y-74330000D02*
X140830000Y-74330000D01*
X144730000Y-65510000D02*
X145040000Y-65510000D01*
X145040000Y-65510000D02*
X145040000Y-74330000D01*
X145040000Y-74330000D02*
X144730000Y-74330000D01*
X145240000Y-67920000D02*
X145740000Y-68420000D01*
X145740000Y-67420000D02*
X145240000Y-67920000D01*
X145740000Y-68420000D02*
X145740000Y-67420000D01*
%TO.C,R4*%
X121444000Y-85044000D02*
X121444000Y-85664000D01*
X122364000Y-84124000D02*
G75*
G02*
X120524000Y-84124000I-920000J0D01*
G01*
X120524000Y-84124000D02*
G75*
G02*
X122364000Y-84124000I920000J0D01*
G01*
%TO.C,U1*%
X131875000Y-69205000D02*
X131875000Y-87105000D01*
X131875000Y-87105000D02*
X137175000Y-87105000D01*
X133525000Y-69205000D02*
X131875000Y-69205000D01*
X137175000Y-69205000D02*
X135525000Y-69205000D01*
X137175000Y-87105000D02*
X137175000Y-69205000D01*
X135525000Y-69205000D02*
G75*
G02*
X133525000Y-69205000I-1000000J0D01*
G01*
%TO.C,R1*%
X121444000Y-68980000D02*
X121444000Y-68360000D01*
X122364000Y-69900000D02*
G75*
G02*
X120524000Y-69900000I-920000J0D01*
G01*
X120524000Y-69900000D02*
G75*
G02*
X122364000Y-69900000I920000J0D01*
G01*
%TD*%
M02*
