M48
; DRILL file {KiCad 9.0.1} date 2025-04-18T19:28:48+0100
; FORMAT={-:-/ absolute / metric / decimal}
; #@! TF.CreationDate,2025-04-18T19:28:48+01:00
; #@! TF.GenerationSoftware,Kicad,Pcbnew,9.0.1
; #@! TF.FileFunction,Plated,1,2,PTH
FMAT,2
METRIC
; #@! TA.AperFunction,Plated,PTH,ViaDrill
T1C0.300
; #@! TA.AperFunction,Plated,PTH,ComponentDrill
T2C0.700
; #@! TA.AperFunction,Plated,PTH,ComponentDrill
T3C0.800
; #@! TA.AperFunction,Plated,PTH,ComponentDrill
T4C1.000
; #@! TA.AperFunction,Plated,PTH,ComponentDrill
T5C1.500
%
G90
G05
T1
X125.508Y-70.916
X125.508Y-83.108
X132.62Y-78.27
X135.795Y-82.715
X136.43Y-74.345
T2
X121.444Y-67.36
X121.444Y-69.9
X121.444Y-72.44
X121.444Y-74.98
X121.444Y-79.044
X121.444Y-81.584
X121.444Y-84.124
X121.444Y-86.664
T3
X118.65Y-67.475
X118.65Y-69.975
X118.65Y-72.555
X118.65Y-75.055
X118.65Y-79.21
X118.65Y-81.71
X118.65Y-84.31
X118.65Y-86.81
X125.635Y-68.31
X125.635Y-73.19
X125.635Y-80.81
X125.635Y-85.69
X130.715Y-70.535
X130.715Y-73.075
X130.715Y-75.615
X130.715Y-78.155
X130.715Y-80.695
X130.715Y-83.235
X130.715Y-85.775
X133.275Y-67.36
X135.775Y-67.36
X138.335Y-70.535
X138.335Y-73.075
X138.335Y-75.615
X138.335Y-78.155
X138.335Y-80.695
X138.335Y-83.235
X138.335Y-85.775
X142.78Y-67.92
X142.78Y-69.92
X142.78Y-71.92
T4
X142.78Y-78.27
X142.78Y-80.81
X142.78Y-83.35
X142.78Y-85.89
T5
X142.78Y-65.82
X142.78Y-74.02
M30
