%TF.GenerationSoftware,KiCad,Pcbnew,9.0.1*%
%TF.CreationDate,2025-04-18T19:28:51+01:00*%
%TF.ProjectId,ClockSel,436c6f63-6b53-4656-9c2e-6b696361645f,rev?*%
%TF.SameCoordinates,Original*%
%TF.FileFunction,Legend,Bot*%
%TF.FilePolarity,Positive*%
%FSLAX46Y46*%
G04 Gerber Fmt 4.6, Leading zero omitted, Abs format (unit mm)*
G04 Created by KiCad (PCBNEW 9.0.1) date 2025-04-18 19:28:51*
%MOMM*%
%LPD*%
G01*
G04 APERTURE LIST*
%ADD10C,0.150000*%
G04 APERTURE END LIST*
D10*
X123930819Y-67931619D02*
X123454628Y-67664952D01*
X123930819Y-67474476D02*
X122930819Y-67474476D01*
X122930819Y-67474476D02*
X122930819Y-67779238D01*
X122930819Y-67779238D02*
X122978438Y-67855428D01*
X122978438Y-67855428D02*
X123026057Y-67893523D01*
X123026057Y-67893523D02*
X123121295Y-67931619D01*
X123121295Y-67931619D02*
X123264152Y-67931619D01*
X123264152Y-67931619D02*
X123359390Y-67893523D01*
X123359390Y-67893523D02*
X123407009Y-67855428D01*
X123407009Y-67855428D02*
X123454628Y-67779238D01*
X123454628Y-67779238D02*
X123454628Y-67474476D01*
X122883200Y-68845904D02*
X124168914Y-68160190D01*
X123835580Y-69569714D02*
X123883200Y-69531618D01*
X123883200Y-69531618D02*
X123930819Y-69417333D01*
X123930819Y-69417333D02*
X123930819Y-69341142D01*
X123930819Y-69341142D02*
X123883200Y-69226856D01*
X123883200Y-69226856D02*
X123787961Y-69150666D01*
X123787961Y-69150666D02*
X123692723Y-69112571D01*
X123692723Y-69112571D02*
X123502247Y-69074475D01*
X123502247Y-69074475D02*
X123359390Y-69074475D01*
X123359390Y-69074475D02*
X123168914Y-69112571D01*
X123168914Y-69112571D02*
X123073676Y-69150666D01*
X123073676Y-69150666D02*
X122978438Y-69226856D01*
X122978438Y-69226856D02*
X122930819Y-69341142D01*
X122930819Y-69341142D02*
X122930819Y-69417333D01*
X122930819Y-69417333D02*
X122978438Y-69531618D01*
X122978438Y-69531618D02*
X123026057Y-69569714D01*
X123930819Y-70331618D02*
X123930819Y-69874475D01*
X123930819Y-70103047D02*
X122930819Y-70103047D01*
X122930819Y-70103047D02*
X123073676Y-70026856D01*
X123073676Y-70026856D02*
X123168914Y-69950666D01*
X123168914Y-69950666D02*
X123216533Y-69874475D01*
X123930819Y-84187619D02*
X123454628Y-83920952D01*
X123930819Y-83730476D02*
X122930819Y-83730476D01*
X122930819Y-83730476D02*
X122930819Y-84035238D01*
X122930819Y-84035238D02*
X122978438Y-84111428D01*
X122978438Y-84111428D02*
X123026057Y-84149523D01*
X123026057Y-84149523D02*
X123121295Y-84187619D01*
X123121295Y-84187619D02*
X123264152Y-84187619D01*
X123264152Y-84187619D02*
X123359390Y-84149523D01*
X123359390Y-84149523D02*
X123407009Y-84111428D01*
X123407009Y-84111428D02*
X123454628Y-84035238D01*
X123454628Y-84035238D02*
X123454628Y-83730476D01*
X122883200Y-85101904D02*
X124168914Y-84416190D01*
X123835580Y-85825714D02*
X123883200Y-85787618D01*
X123883200Y-85787618D02*
X123930819Y-85673333D01*
X123930819Y-85673333D02*
X123930819Y-85597142D01*
X123930819Y-85597142D02*
X123883200Y-85482856D01*
X123883200Y-85482856D02*
X123787961Y-85406666D01*
X123787961Y-85406666D02*
X123692723Y-85368571D01*
X123692723Y-85368571D02*
X123502247Y-85330475D01*
X123502247Y-85330475D02*
X123359390Y-85330475D01*
X123359390Y-85330475D02*
X123168914Y-85368571D01*
X123168914Y-85368571D02*
X123073676Y-85406666D01*
X123073676Y-85406666D02*
X122978438Y-85482856D01*
X122978438Y-85482856D02*
X122930819Y-85597142D01*
X122930819Y-85597142D02*
X122930819Y-85673333D01*
X122930819Y-85673333D02*
X122978438Y-85787618D01*
X122978438Y-85787618D02*
X123026057Y-85825714D01*
X123264152Y-86511428D02*
X123930819Y-86511428D01*
X122883200Y-86320952D02*
X123597485Y-86130475D01*
X123597485Y-86130475D02*
X123597485Y-86625714D01*
X123930819Y-79615619D02*
X123454628Y-79348952D01*
X123930819Y-79158476D02*
X122930819Y-79158476D01*
X122930819Y-79158476D02*
X122930819Y-79463238D01*
X122930819Y-79463238D02*
X122978438Y-79539428D01*
X122978438Y-79539428D02*
X123026057Y-79577523D01*
X123026057Y-79577523D02*
X123121295Y-79615619D01*
X123121295Y-79615619D02*
X123264152Y-79615619D01*
X123264152Y-79615619D02*
X123359390Y-79577523D01*
X123359390Y-79577523D02*
X123407009Y-79539428D01*
X123407009Y-79539428D02*
X123454628Y-79463238D01*
X123454628Y-79463238D02*
X123454628Y-79158476D01*
X122883200Y-80529904D02*
X124168914Y-79844190D01*
X123835580Y-81253714D02*
X123883200Y-81215618D01*
X123883200Y-81215618D02*
X123930819Y-81101333D01*
X123930819Y-81101333D02*
X123930819Y-81025142D01*
X123930819Y-81025142D02*
X123883200Y-80910856D01*
X123883200Y-80910856D02*
X123787961Y-80834666D01*
X123787961Y-80834666D02*
X123692723Y-80796571D01*
X123692723Y-80796571D02*
X123502247Y-80758475D01*
X123502247Y-80758475D02*
X123359390Y-80758475D01*
X123359390Y-80758475D02*
X123168914Y-80796571D01*
X123168914Y-80796571D02*
X123073676Y-80834666D01*
X123073676Y-80834666D02*
X122978438Y-80910856D01*
X122978438Y-80910856D02*
X122930819Y-81025142D01*
X122930819Y-81025142D02*
X122930819Y-81101333D01*
X122930819Y-81101333D02*
X122978438Y-81215618D01*
X122978438Y-81215618D02*
X123026057Y-81253714D01*
X122930819Y-81520380D02*
X122930819Y-82015618D01*
X122930819Y-82015618D02*
X123311771Y-81748952D01*
X123311771Y-81748952D02*
X123311771Y-81863237D01*
X123311771Y-81863237D02*
X123359390Y-81939428D01*
X123359390Y-81939428D02*
X123407009Y-81977523D01*
X123407009Y-81977523D02*
X123502247Y-82015618D01*
X123502247Y-82015618D02*
X123740342Y-82015618D01*
X123740342Y-82015618D02*
X123835580Y-81977523D01*
X123835580Y-81977523D02*
X123883200Y-81939428D01*
X123883200Y-81939428D02*
X123930819Y-81863237D01*
X123930819Y-81863237D02*
X123930819Y-81634666D01*
X123930819Y-81634666D02*
X123883200Y-81558475D01*
X123883200Y-81558475D02*
X123835580Y-81520380D01*
X123930819Y-72503619D02*
X123454628Y-72236952D01*
X123930819Y-72046476D02*
X122930819Y-72046476D01*
X122930819Y-72046476D02*
X122930819Y-72351238D01*
X122930819Y-72351238D02*
X122978438Y-72427428D01*
X122978438Y-72427428D02*
X123026057Y-72465523D01*
X123026057Y-72465523D02*
X123121295Y-72503619D01*
X123121295Y-72503619D02*
X123264152Y-72503619D01*
X123264152Y-72503619D02*
X123359390Y-72465523D01*
X123359390Y-72465523D02*
X123407009Y-72427428D01*
X123407009Y-72427428D02*
X123454628Y-72351238D01*
X123454628Y-72351238D02*
X123454628Y-72046476D01*
X122883200Y-73417904D02*
X124168914Y-72732190D01*
X123835580Y-74141714D02*
X123883200Y-74103618D01*
X123883200Y-74103618D02*
X123930819Y-73989333D01*
X123930819Y-73989333D02*
X123930819Y-73913142D01*
X123930819Y-73913142D02*
X123883200Y-73798856D01*
X123883200Y-73798856D02*
X123787961Y-73722666D01*
X123787961Y-73722666D02*
X123692723Y-73684571D01*
X123692723Y-73684571D02*
X123502247Y-73646475D01*
X123502247Y-73646475D02*
X123359390Y-73646475D01*
X123359390Y-73646475D02*
X123168914Y-73684571D01*
X123168914Y-73684571D02*
X123073676Y-73722666D01*
X123073676Y-73722666D02*
X122978438Y-73798856D01*
X122978438Y-73798856D02*
X122930819Y-73913142D01*
X122930819Y-73913142D02*
X122930819Y-73989333D01*
X122930819Y-73989333D02*
X122978438Y-74103618D01*
X122978438Y-74103618D02*
X123026057Y-74141714D01*
X123026057Y-74446475D02*
X122978438Y-74484571D01*
X122978438Y-74484571D02*
X122930819Y-74560761D01*
X122930819Y-74560761D02*
X122930819Y-74751237D01*
X122930819Y-74751237D02*
X122978438Y-74827428D01*
X122978438Y-74827428D02*
X123026057Y-74865523D01*
X123026057Y-74865523D02*
X123121295Y-74903618D01*
X123121295Y-74903618D02*
X123216533Y-74903618D01*
X123216533Y-74903618D02*
X123359390Y-74865523D01*
X123359390Y-74865523D02*
X123930819Y-74408380D01*
X123930819Y-74408380D02*
X123930819Y-74903618D01*
M02*
