%TF.GenerationSoftware,KiCad,Pcbnew,9.0.1*%
%TF.CreationDate,2025-04-18T19:28:51+01:00*%
%TF.ProjectId,ClockSel,436c6f63-6b53-4656-9c2e-6b696361645f,rev?*%
%TF.SameCoordinates,Original*%
%TF.FileFunction,Soldermask,Top*%
%TF.FilePolarity,Negative*%
%FSLAX46Y46*%
G04 Gerber Fmt 4.6, Leading zero omitted, Abs format (unit mm)*
G04 Created by KiCad (PCBNEW 9.0.1) date 2025-04-18 19:28:51*
%MOMM*%
%LPD*%
G01*
G04 APERTURE LIST*
G04 Aperture macros list*
%AMRoundRect*
0 Rectangle with rounded corners*
0 $1 Rounding radius*
0 $2 $3 $4 $5 $6 $7 $8 $9 X,Y pos of 4 corners*
0 Add a 4 corners polygon primitive as box body*
4,1,4,$2,$3,$4,$5,$6,$7,$8,$9,$2,$3,0*
0 Add four circle primitives for the rounded corners*
1,1,$1+$1,$2,$3*
1,1,$1+$1,$4,$5*
1,1,$1+$1,$6,$7*
1,1,$1+$1,$8,$9*
0 Add four rect primitives between the rounded corners*
20,1,$1+$1,$2,$3,$4,$5,0*
20,1,$1+$1,$4,$5,$6,$7,0*
20,1,$1+$1,$6,$7,$8,$9,0*
20,1,$1+$1,$8,$9,$2,$3,0*%
G04 Aperture macros list end*
%ADD10C,1.600000*%
%ADD11R,1.700000X1.700000*%
%ADD12C,1.700000*%
%ADD13C,1.500000*%
%ADD14C,1.400000*%
%ADD15O,1.400000X1.400000*%
%ADD16O,3.500000X2.200000*%
%ADD17R,2.500000X1.500000*%
%ADD18O,2.500000X1.500000*%
%ADD19RoundRect,0.250000X-0.550000X-0.550000X0.550000X-0.550000X0.550000X0.550000X-0.550000X0.550000X0*%
G04 APERTURE END LIST*
D10*
%TO.C,C3*%
X118650000Y-81710000D03*
X118650000Y-79210000D03*
%TD*%
%TO.C,C4*%
X118650000Y-84310000D03*
X118650000Y-86810000D03*
%TD*%
D11*
%TO.C,J1*%
X142780000Y-85890000D03*
D12*
X142780000Y-83350000D03*
X142780000Y-80810000D03*
X142780000Y-78270000D03*
%TD*%
D13*
%TO.C,Y2*%
X125635000Y-80810000D03*
X125635000Y-85690000D03*
%TD*%
D10*
%TO.C,C5*%
X135775000Y-67360000D03*
X133275000Y-67360000D03*
%TD*%
%TO.C,C2*%
X118650000Y-72555000D03*
X118650000Y-75055000D03*
%TD*%
D14*
%TO.C,R3*%
X121444000Y-81584000D03*
D15*
X121444000Y-79044000D03*
%TD*%
D13*
%TO.C,Y1*%
X125635000Y-68310000D03*
X125635000Y-73190000D03*
%TD*%
D14*
%TO.C,R2*%
X121444000Y-72440000D03*
D15*
X121444000Y-74980000D03*
%TD*%
D10*
%TO.C,C1*%
X118650000Y-69975000D03*
X118650000Y-67475000D03*
%TD*%
D16*
%TO.C,SW1*%
X142780000Y-65820000D03*
X142780000Y-74020000D03*
D17*
X142780000Y-67920000D03*
D18*
X142780000Y-69920000D03*
X142780000Y-71920000D03*
%TD*%
D14*
%TO.C,R4*%
X121444000Y-84124000D03*
D15*
X121444000Y-86664000D03*
%TD*%
D19*
%TO.C,U1*%
X130715000Y-70535000D03*
D10*
X130715000Y-73075000D03*
X130715000Y-75615000D03*
X130715000Y-78155000D03*
X130715000Y-80695000D03*
X130715000Y-83235000D03*
X130715000Y-85775000D03*
X138335000Y-85775000D03*
X138335000Y-83235000D03*
X138335000Y-80695000D03*
X138335000Y-78155000D03*
X138335000Y-75615000D03*
X138335000Y-73075000D03*
X138335000Y-70535000D03*
%TD*%
D14*
%TO.C,R1*%
X121444000Y-69900000D03*
D15*
X121444000Y-67360000D03*
%TD*%
M02*
